<?xml version="1.0" standalone="no"?>
<!DOCTYPE svg PUBLIC "-//W3C//DTD SVG 20010904//EN"
 "http://www.w3.org/TR/2001/REC-SVG-20010904/DTD/svg10.dtd">
<svg version="1.0" xmlns="http://www.w3.org/2000/svg"
 width="730.000000pt" height="342.000000pt" viewBox="0 0 730.000000 342.000000"
 preserveAspectRatio="xMidYMid meet">

<g transform="translate(0.000000,342.000000) scale(0.100000,-0.100000)"
fill="#000000" stroke="none">
<path d="M3115 2860 c-644 -40 -1091 -134 -1651 -346 -281 -106 -267 -95 -367
-304 -36 -74 -158 -324 -272 -555 -365 -739 -445 -906 -445 -931 0 -13 9 -28
19 -34 27 -14 6395 -14 6422 0 11 6 19 21 19 36 0 13 -83 194 -185 402 -102
207 -279 568 -393 801 -140 288 -218 436 -242 461 -28 30 -65 49 -191 97 -411
160 -797 266 -1144 313 -224 30 -312 40 -440 50 -181 15 -949 21 -1130 10z
m721 -80 c262 -10 565 -33 684 -50 557 -84 875 -166 1211 -314 95 -42 226
-115 207 -116 -4 0 -40 13 -80 29 -220 87 -728 194 -1098 231 -421 43 -539 49
-1000 56 -338 5 -485 3 -715 -11 -382 -22 -594 -41 -795 -71 -58 -9 -134 -20
-170 -25 -199 -28 -606 -126 -735 -177 -27 -11 -59 -23 -70 -27 l-20 -7 20 17
c28 23 136 77 242 121 268 111 632 210 953 259 251 38 292 44 415 55 111 11
501 34 646 39 25 0 162 -4 305 -9z m174 -249 l135 -6 0 -159 0 -158 -372 1
-372 2 -7 -24 c-3 -14 -4 -36 -2 -48 3 -24 4 -24 128 -24 69 0 185 -1 258 -2
l132 -3 -2 -161 -3 -162 -252 2 -252 2 -6 -24 c-4 -14 -5 -36 -3 -48 l3 -24
366 -6 c201 -3 371 -9 378 -13 9 -6 12 -47 9 -162 -2 -126 -6 -153 -18 -156
-8 -2 -208 -1 -445 2 -430 5 -430 5 -462 28 -43 30 -89 98 -116 170 -20 53
-21 80 -25 363 -3 260 -1 316 13 370 32 125 109 225 182 239 46 9 547 10 733
1z m445 -25 c94 -8 178 -17 187 -21 10 -4 26 -21 36 -38 10 -18 99 -171 198
-340 l179 -309 9 314 c4 172 10 315 12 317 6 7 277 -39 285 -47 9 -9 -2 -1047
-10 -1060 -6 -10 -374 3 -392 13 -13 9 -75 107 -254 404 l-160 264 -5 -324
c-3 -178 -7 -325 -8 -327 -1 -1 -68 -1 -149 0 l-148 3 3 575 c2 316 6 578 8
582 6 10 6 10 209 -6z m-1629 -15 c48 -22 96 -85 127 -169 18 -47 22 -79 22
-182 0 -107 -4 -133 -23 -182 -32 -79 -107 -159 -177 -189 -30 -13 -55 -30
-55 -36 0 -7 25 -42 55 -78 94 -110 245 -299 242 -302 -2 -1 -99 -3 -217 -3
l-215 -1 -20 24 c-11 13 -81 95 -155 181 -74 87 -145 170 -157 185 -19 23 -22
43 -29 158 -6 109 -4 133 7 138 17 6 200 24 332 33 103 7 117 14 117 59 0 51
-58 60 -220 33 -30 -5 -104 -12 -165 -16 -60 -3 -116 -9 -123 -13 -10 -6 -13
-94 -15 -407 l-2 -399 -140 -6 c-77 -3 -143 -3 -147 0 -4 3 -8 245 -8 536 l-2
530 64 12 c96 17 317 50 463 68 72 8 166 20 210 25 44 6 100 12 125 14 25 1
50 3 55 4 6 1 29 -7 51 -17z m-1053 -438 c4 -174 7 -415 7 -535 l0 -218 -66 0
c-36 0 -107 -4 -157 -10 -51 -5 -166 -14 -257 -20 -91 -6 -178 -14 -194 -18
-32 -9 -26 2 -182 -294 l-99 -188 -168 0 -168 0 12 23 c7 12 22 38 34 57 132
211 454 854 669 1337 20 44 36 64 55 72 22 8 118 30 441 99 25 6 50 10 56 11
7 1 13 -97 17 -316z m3900 272 c276 -58 308 -67 318 -85 5 -8 50 -107 101
-220 124 -277 403 -833 531 -1060 l105 -185 -161 -3 c-120 -2 -164 1 -173 10
-11 12 -92 161 -211 387 -31 59 -45 77 -69 83 -16 5 -132 16 -259 24 -126 9
-270 19 -320 22 l-90 7 0 133 c1 475 6 932 10 932 3 0 101 -20 218 -45z
m-2115 -1132 l3 -62 -128 -3 c-106 -3 -128 -6 -128 -18 0 -12 17 -16 85 -18
121 -3 124 -5 149 -61 29 -68 28 -152 -1 -211 l-23 -45 -165 0 -165 0 3 50 c6
90 -2 85 133 85 112 0 119 1 119 20 0 19 -7 20 -93 20 -87 0 -95 2 -118 26
-20 21 -24 38 -27 99 -5 86 9 137 45 165 24 19 38 20 167 18 l141 -3 3 -62z
m329 -98 c6 -88 12 -166 12 -172 1 -10 34 -13 130 -13 l128 0 7 -61 c3 -34 3
-65 0 -70 -3 -5 -90 -9 -195 -9 l-189 0 0 246 0 245 48 -3 47 -3 12 -160z
m-1131 118 c-16 -92 -15 -90 -54 -97 -20 -3 -76 -6 -124 -6 -72 0 -88 -3 -88
-15 0 -12 16 -15 85 -15 85 0 85 0 85 -26 0 -14 -5 -45 -11 -70 l-11 -44 -89
0 c-72 0 -89 -3 -89 -15 0 -13 21 -15 131 -15 l132 0 -7 -37 c-3 -21 -6 -53
-6 -70 l0 -33 -196 0 c-173 0 -195 2 -190 16 3 8 17 88 31 177 27 169 51 239
88 259 25 13 125 24 241 27 l78 1 -6 -37z m381 11 c22 -34 29 -123 13 -179 -8
-28 -26 -57 -52 -80 l-39 -36 20 -32 c32 -52 71 -122 71 -127 0 -3 -35 -3 -77
0 l-77 5 -51 85 c-43 73 -50 93 -51 140 -1 81 -1 80 81 80 57 0 74 3 79 16 3
9 4 20 0 25 -7 12 -161 12 -169 -1 -7 -12 -23 -146 -31 -262 -6 -96 -7 -96
-77 -89 l-40 3 7 62 c11 96 25 234 32 311 10 111 0 105 184 105 l160 0 17 -26z
m1339 11 c32 -22 54 -77 70 -173 19 -116 18 -225 -1 -262 l-16 -30 -138 0
c-157 0 -156 0 -187 85 -12 36 -19 91 -22 195 -4 137 -3 146 18 173 21 27 23
27 139 27 86 0 122 -4 137 -15z m183 -4 c4 -6 13 -59 20 -119 7 -59 18 -129
25 -157 l11 -50 70 0 70 0 -1 30 c0 17 -10 84 -22 151 -12 67 -22 127 -22 133
0 8 17 11 53 9 60 -3 51 19 91 -213 18 -101 22 -151 16 -178 -14 -66 -18 -67
-165 -67 l-133 0 -26 30 c-29 35 -56 116 -56 169 0 20 -5 53 -9 75 -5 21 -13
77 -16 124 l-8 85 48 -5 c26 -3 51 -11 54 -17z m-2292 -18 c-6 -20 -16 -80
-47 -278 -28 -177 -22 -165 -84 -165 l-53 0 13 63 c24 111 18 119 -27 37 -55
-101 -54 -100 -113 -100 l-52 0 -14 80 c-7 44 -17 80 -21 80 -4 0 -15 -36 -25
-80 l-17 -80 -54 0 c-47 0 -54 2 -49 18 3 9 10 40 16 67 6 28 24 109 41 180
16 72 32 140 35 153 4 21 9 23 67 20 l62 -3 25 -117 c16 -75 29 -115 36 -110
6 4 34 52 64 107 82 154 73 145 142 145 52 0 59 -2 55 -17z m2720 -2 c7 -3 34
-36 60 -72 95 -131 126 -170 129 -166 2 2 -8 49 -21 106 -14 56 -25 109 -25
117 0 10 13 14 45 14 38 0 47 -4 54 -22 10 -23 101 -397 101 -410 0 -5 -33 -8
-74 -8 l-74 0 -93 126 c-52 70 -95 120 -97 112 -2 -8 6 -56 18 -106 29 -133
30 -132 -29 -132 -59 0 -50 -20 -91 210 -17 96 -35 192 -40 214 l-8 38 66 -7
c37 -4 72 -10 79 -14z m-3329 -210 c18 -110 35 -207 38 -216 6 -14 -9 -15
-127 -13 l-134 3 -5 38 c-6 46 -17 45 -53 -5 -26 -37 -29 -38 -88 -38 -59 0
-61 1 -48 19 208 291 287 395 303 401 12 5 35 9 51 9 l31 1 32 -199z m3859
187 l103 -12 15 -45 c8 -24 15 -48 15 -52 0 -4 -54 -5 -120 -2 -97 5 -121 3
-125 -8 -3 -8 5 -50 18 -94 l23 -80 77 -3 c66 -2 76 -1 71 13 -4 11 -20 15
-54 15 -55 0 -57 2 -75 71 l-13 50 106 -3 105 -3 38 -115 c21 -63 38 -123 38
-132 1 -16 -13 -18 -159 -18 l-161 0 -26 28 c-36 38 -59 92 -88 213 -29 122
-30 137 -9 167 18 26 64 29 221 10z m-4201 -76 l-17 -49 -121 -6 c-79 -4 -126
-11 -134 -19 -17 -18 -65 -148 -58 -159 13 -21 149 -2 149 21 0 12 -11 14 -49
11 l-49 -3 7 28 c4 16 15 43 25 59 17 30 18 30 118 33 l101 3 -7 -23 c-3 -13
-22 -71 -41 -130 l-35 -108 -167 0 -168 0 -6 26 c-10 38 1 83 42 180 24 55 53
103 79 130 39 41 42 42 120 48 44 3 109 10 145 14 36 4 69 5 74 1 4 -4 1 -29
-8 -57z m4607 42 c86 -7 100 -18 113 -84 l7 -33 -54 7 c-140 18 -202 20 -197
5 3 -9 29 -16 79 -21 113 -11 115 -12 133 -65 9 -25 16 -48 16 -50 0 -2 -38
-3 -85 -3 -65 0 -85 -3 -85 -14 0 -13 113 -26 226 -26 45 0 59 -13 78 -78 l7
-22 -191 2 -192 3 -48 150 c-51 156 -57 192 -39 227 12 22 -6 22 232 2z"/>
<path d="M1425 1886 c-36 -9 -53 -19 -62 -37 -42 -82 -142 -304 -138 -307 4
-4 168 15 225 26 l35 7 3 163 c1 89 -1 161 -5 161 -5 -1 -30 -7 -58 -13z"/>
<path d="M5725 1888 c-3 -8 -4 -81 -3 -163 l3 -150 40 -7 c79 -13 227 -30 231
-26 3 4 -129 293 -149 324 -3 6 -24 14 -46 18 -22 3 -46 9 -55 12 -9 3 -18 0
-21 -8z"/>
<path d="M4283 1035 c9 -132 11 -135 99 -135 l71 0 -6 105 c-3 58 -9 110 -12
115 -3 6 -40 10 -82 10 l-76 0 6 -95z"/>
<path d="M1609 1003 c-23 -28 -69 -98 -69 -106 0 -4 25 -7 56 -7 l56 0 -7 58
c-8 67 -16 79 -36 55z"/>
</g>
</svg>
