<?xml version="1.0" encoding="UTF-8"?>
<svg id="Layer_3_copy" data-name="Layer 3 copy" xmlns="http://www.w3.org/2000/svg" version="1.1" xmlns:xlink="http://www.w3.org/1999/xlink" viewBox="0 0 295.76 295.76">
  <defs>
    <style>
      .cls-1 {
        fill: #ffd8c9;
      }

      .cls-1, .cls-2, .cls-3, .cls-4, .cls-5, .cls-6, .cls-7, .cls-8, .cls-9, .cls-10, .cls-11 {
        stroke-width: 0px;
      }

      .cls-2 {
        fill: #153b8b;
      }

      .cls-12 {
        stroke: #091445;
        stroke-width: 2px;
      }

      .cls-12, .cls-3, .cls-13 {
        fill: none;
      }

      .cls-12, .cls-13 {
        stroke-miterlimit: 10;
      }

      .cls-4 {
        fill: #b20d3c;
      }

      .cls-5 {
        fill: #e29f17;
      }

      .cls-6 {
        fill: #091445;
      }

      .cls-7 {
        fill: #393c54;
      }

      .cls-14 {
        clip-path: url(#clippath);
      }

      .cls-8 {
        fill: #efad9a;
      }

      .cls-9 {
        fill: #fff;
      }

      .cls-10 {
        fill: #d1d2d4;
      }

      .cls-11 {
        fill: #fec43b;
      }

      .cls-13 {
        stroke: #393c54;
      }
    </style>
    <clipPath id="clippath">
      <circle class="cls-3" cx="147.63" cy="148.66" r="147.63"/>
    </clipPath>
  </defs>
  <g class="cls-14">
    <g>
      <circle class="cls-6" cx="147.63" cy="148.66" r="147.63"/>
      <rect class="cls-11" x="17.42" y="222.15" width="258.65" height="223.78" rx="108" ry="108"/>
      <rect class="cls-5" x="17.42" y="232.15" width="258.65" height="223.78" rx="108" ry="108"/>
      <rect class="cls-10" x="183.38" y="124.11" width="42.61" height="64.09" rx="21.3" ry="21.3"/>
      <rect class="cls-10" x="68.64" y="125.15" width="42.61" height="64.09" rx="21.3" ry="21.3"/>
      <rect class="cls-8" x="123.85" y="146.16" width="45.78" height="130.07" rx="22.89" ry="22.89"/>
      <path class="cls-1" d="M93.33,106.16h106.83v76.66c0,29.48-23.93,53.41-53.41,53.41h0c-29.48,0-53.41-23.93-53.41-53.41v-76.66h0Z"/>
      <rect class="cls-8" x="93.33" y="120.77" width="106.83" height="33.43"/>
      <path class="cls-4" d="M146.74,53.37h0c31.12,0,56.39,25.27,56.39,56.39v36.22h-112.77v-36.22c0-31.12,25.27-56.39,56.39-56.39Z"/>
      <path class="cls-10" d="M146.74,63.26h0c34.47,0,62.45,27.98,62.45,62.45v16.22h-124.9v-16.22c0-34.47,27.98-62.45,62.45-62.45Z"/>
      <path class="cls-4" d="M146.74,71.11h0c31.12,0,56.39,25.27,56.39,56.39v18.48h-112.77v-18.48c0-31.12,25.27-56.39,56.39-56.39Z"/>
      <rect class="cls-6" x="114.2" y="188.81" width="65.09" height="65.09" rx="32.54" ry="32.54"/>
      <rect class="cls-1" x="133.04" y="168.96" width="27.41" height="27.41" rx="13.71" ry="13.71"/>
      <rect class="cls-1" x="133.04" y="198.38" width="27.41" height="27.41" rx="13.71" ry="13.71"/>
      <rect class="cls-6" x="141.07" y="215.5" width="11.35" height="27.41"/>
      <g>
        <path class="cls-9" d="M137.22,167.06c0,6.88-5.58,12.46-12.45,12.46s-12.46-5.58-12.46-12.46c0-1.47.25-2.88.72-4.18h23.46c.48,1.3.73,2.71.73,4.18Z"/>
        <path class="cls-7" d="M132.38,165.43c0,4.21-3.41,7.62-7.61,7.62s-7.62-3.41-7.62-7.62c0-.9.15-1.76.44-2.55h14.34c.29.79.45,1.66.45,2.55Z"/>
      </g>
      <g>
        <path class="cls-9" d="M180.85,167.06c0,6.88-5.58,12.46-12.45,12.46s-12.46-5.58-12.46-12.46c0-1.47.25-2.88.72-4.18h23.46c.48,1.3.73,2.71.73,4.18Z"/>
        <path class="cls-7" d="M176.01,165.43c0,4.21-3.41,7.62-7.61,7.62s-7.62-3.41-7.62-7.62c0-.9.15-1.76.44-2.55h14.34c.29.79.45,1.66.45,2.55Z"/>
      </g>
      <line class="cls-13" x1="138.33" y1="154.2" x2="109.11" y2="154.2"/>
      <line class="cls-13" x1="184.24" y1="154.2" x2="155.03" y2="154.2"/>
      <path class="cls-12" d="M160.78,203.11s-2.2,4.12-14.61,4.12-14.61-4.12-14.61-4.12"/>
    </g>
    <path class="cls-2" d="M117.18,123.11h59.12c14.81,0,26.83,12.02,26.83,26.83h-112.77c0-14.81,12.02-26.83,26.83-26.83Z"/>
  </g>
</svg>