<?xml version="1.0" encoding="UTF-8"?>
<svg id="Layer_3_copy" data-name="Layer 3 copy" xmlns="http://www.w3.org/2000/svg" version="1.1" xmlns:xlink="http://www.w3.org/1999/xlink" viewBox="0 0 295.26 295.39">
  <defs>
    <style>
      .cls-1 {
        fill: #ffd8c9;
      }

      .cls-1, .cls-2, .cls-3, .cls-4, .cls-5, .cls-6, .cls-7, .cls-8, .cls-9, .cls-10, .cls-11 {
        stroke-width: 0px;
      }

      .cls-2 {
        fill: #153b8b;
      }

      .cls-3, .cls-12 {
        fill: none;
      }

      .cls-4 {
        fill: #b20d3c;
      }

      .cls-5 {
        fill: #091445;
      }

      .cls-6 {
        fill: #393c54;
      }

      .cls-7 {
        fill: #e31a4c;
      }

      .cls-13 {
        clip-path: url(#clippath);
      }

      .cls-8 {
        fill: #efad9a;
      }

      .cls-9 {
        fill: #fff;
      }

      .cls-10 {
        fill: #d1d2d4;
      }

      .cls-11 {
        fill: #fec43b;
      }

      .cls-12 {
        stroke: #393c54;
        stroke-miterlimit: 10;
      }
    </style>
    <clipPath id="clippath">
      <circle class="cls-3" cx="147.63" cy="147.63" r="147.63"/>
    </clipPath>
  </defs>
  <g class="cls-13">
    <g>
      <g>
        <circle class="cls-11" cx="147.63" cy="147.63" r="147.63"/>
        <rect class="cls-7" x="17.42" y="221.12" width="258.65" height="223.78" rx="108" ry="108"/>
        <rect class="cls-4" x="17.42" y="231.12" width="258.65" height="223.78" rx="108" ry="108"/>
        <rect class="cls-5" x="183.38" y="123.08" width="42.61" height="64.09" rx="21.3" ry="21.3"/>
        <rect class="cls-5" x="68.64" y="124.12" width="42.61" height="64.09" rx="21.3" ry="21.3"/>
        <rect class="cls-8" x="123.85" y="145.13" width="45.78" height="130.07" rx="22.89" ry="22.89"/>
        <path class="cls-1" d="M93.33,105.13h106.83v76.66c0,29.48-23.93,53.41-53.41,53.41h0c-29.48,0-53.41-23.93-53.41-53.41v-76.66h0Z"/>
        <rect class="cls-8" x="93.33" y="119.74" width="106.83" height="33.43"/>
        <path class="cls-2" d="M146.74,52.34h0c31.12,0,56.39,25.27,56.39,56.39v36.22h-112.77v-36.22c0-31.12,25.27-56.39,56.39-56.39h0Z"/>
        <path class="cls-5" d="M146.74,62.23h0c34.47,0,62.45,27.98,62.45,62.45v16.22h-124.9v-16.22c0-34.47,27.98-62.45,62.45-62.45Z"/>
        <path class="cls-2" d="M146.74,70.08h0c31.12,0,56.39,25.27,56.39,56.39v18.48h-112.77v-18.48c0-31.12,25.27-56.39,56.39-56.39h0Z"/>
        <g>
          <path class="cls-9" d="M137.22,166.02c0,6.88-5.58,12.46-12.45,12.46s-12.46-5.58-12.46-12.46c0-1.47.25-2.88.72-4.18h23.46c.48,1.3.73,2.71.73,4.18Z"/>
          <path class="cls-6" d="M132.38,164.4c0,4.21-3.41,7.62-7.61,7.62s-7.62-3.41-7.62-7.62c0-.9.15-1.76.44-2.55h14.34c.29.79.45,1.66.45,2.55Z"/>
        </g>
        <g>
          <path class="cls-9" d="M180.85,166.02c0,6.88-5.58,12.46-12.45,12.46s-12.46-5.58-12.46-12.46c0-1.47.25-2.88.72-4.18h23.46c.48,1.3.73,2.71.73,4.18h0Z"/>
          <path class="cls-6" d="M176.01,164.4c0,4.21-3.41,7.62-7.61,7.62s-7.62-3.41-7.62-7.62c0-.9.15-1.76.44-2.55h14.34c.29.79.45,1.66.45,2.55Z"/>
        </g>
        <line class="cls-12" x1="138.33" y1="153.16" x2="109.11" y2="153.16"/>
        <line class="cls-12" x1="184.24" y1="153.16" x2="155.03" y2="153.16"/>
        <path class="cls-12" d="M160.78,202.08s-2.2,4.12-14.61,4.12-14.61-4.12-14.61-4.12"/>
      </g>
      <path class="cls-10" d="M90.36,148.9h112.77c0-14.82-12.01-26.83-26.83-26.83h-59.12c-14.82,0-26.83,12.01-26.83,26.83h0Z"/>
    </g>
  </g>
</svg>