<?xml version="1.0" encoding="UTF-8"?>
<svg id="Layer_3_copy" data-name="Layer 3 copy" xmlns="http://www.w3.org/2000/svg" version="1.1" xmlns:xlink="http://www.w3.org/1999/xlink" viewBox="0 0 295.26 295.26">
  <defs>
    <style>
      .cls-1 {
        fill: #ffd8c9;
      }

      .cls-1, .cls-2, .cls-3, .cls-4, .cls-5, .cls-6, .cls-7, .cls-8 {
        stroke-width: 0px;
      }

      .cls-2 {
        fill: #153b8b;
      }

      .cls-3, .cls-9 {
        fill: none;
      }

      .cls-4 {
        fill: #091445;
      }

      .cls-5 {
        fill: #393c54;
      }

      .cls-6 {
        fill: #e31a4c;
      }

      .cls-10 {
        clip-path: url(#clippath);
      }

      .cls-7 {
        fill: #ec008c;
        isolation: isolate;
        opacity: .5;
      }

      .cls-8 {
        fill: #fff;
      }

      .cls-9 {
        stroke: #393c54;
        stroke-miterlimit: 10;
      }
    </style>
    <clipPath id="clippath">
      <circle class="cls-3" cx="147.63" cy="147.63" r="147.63"/>
    </clipPath>
  </defs>
  <g class="cls-10">
    <g>
      <circle class="cls-6" cx="147.63" cy="147.63" r="147.63"/>
      <rect class="cls-2" x="17.42" y="221.12" width="258.65" height="223.78" rx="108" ry="108"/>
      <rect class="cls-4" x="17.42" y="231.12" width="258.65" height="223.78" rx="108" ry="108"/>
      <rect class="cls-4" x="74.94" y="48.16" width="143.61" height="216" rx="71.8" ry="71.8"/>
      <rect class="cls-2" x="93.33" y="88.13" width="106.83" height="130.07" rx="53.41" ry="53.41"/>
      <rect class="cls-1" x="93.33" y="105.13" width="106.83" height="130.07" rx="53.41" ry="53.41"/>
      <g>
        <path class="cls-8" d="M137.22,166.02c0,6.88-5.58,12.46-12.45,12.46s-12.46-5.58-12.46-12.46c0-1.47.25-2.88.72-4.18h23.46c.48,1.3.73,2.71.73,4.18Z"/>
        <path class="cls-5" d="M132.38,164.4c0,4.21-3.41,7.62-7.61,7.62s-7.62-3.41-7.62-7.62c0-.9.15-1.76.44-2.55h14.34c.29.79.45,1.66.45,2.55Z"/>
      </g>
      <g>
        <path class="cls-8" d="M180.85,166.02c0,6.88-5.58,12.46-12.45,12.46s-12.46-5.58-12.46-12.46c0-1.47.25-2.88.72-4.18h23.46c.48,1.3.73,2.71.73,4.18h0Z"/>
        <path class="cls-5" d="M176.01,164.4c0,4.21-3.41,7.62-7.61,7.62s-7.62-3.41-7.62-7.62c0-.9.15-1.76.44-2.55h14.34c.29.79.45,1.66.45,2.55Z"/>
      </g>
      <line class="cls-9" x1="138.33" y1="153.16" x2="109.11" y2="153.16"/>
      <line class="cls-9" x1="184.24" y1="153.16" x2="155.03" y2="153.16"/>
      <ellipse class="cls-7" cx="146.25" cy="204.83" rx="10.96" ry="3.75"/>
      <path class="cls-9" d="M160.78,202.08s-2.2,4.12-14.61,4.12-14.61-4.12-14.61-4.12"/>
    </g>
  </g>
</svg>